<?xml version="1.0" encoding="utf-8"?>
<!-- Generator: Adobe Illustrator 24.2.3, SVG Export Plug-In . SVG Version: 6.00 Build 0)  -->
<svg version="1.1" id="Layer_1" xmlns="http://www.w3.org/2000/svg" xmlns:xlink="http://www.w3.org/1999/xlink" x="0px" y="0px"
	 viewBox="0 0 774 820.8" style="enable-background:new 0 0 774 820.8;" xml:space="preserve">
<style type="text/css">
	.st0{fill:none;stroke:#000000;stroke-width:0.5;}
</style>
<image style="overflow:visible;enable-background:new    ;" width="4223" height="4000" xlink:href="3EE4CEC9.png"  transform="matrix(0.2047 0 0 0.2047 0 0)">
</image>
<g>
	<polygon id="_x31_225046" class="st0" points="146.7,538 146.5,538 136.7,538 136.1,538 136.1,537.6 135.9,537.6 135.2,537.6 
		135.2,539 136.2,539 136.2,553.2 136.7,553.2 143.7,553.2 146.7,553.2 	"/>
	<polygon id="_x31_225049" class="st0" points="147.4,534 147.4,537.6 147.4,553.2 156.1,553.2 156.1,551.3 156.1,530.9 154,530.9 
		154,534 	"/>
	<polygon id="_x31_242600" class="st0" points="156.5,498.4 161.4,498.4 161.4,495 161.4,494.3 161.4,494 161.4,492 162,492 
		162,494.3 187.3,494.3 187.3,492.7 186.3,492.7 186.3,486 162,486 162,489.2 161.4,489.2 161.4,485.4 186.6,485.4 187.7,485.4 
		187.7,486.6 186.9,486.6 186.9,492.1 187.7,492.1 187.7,495 187.7,498.9 210.5,498.9 210.5,498.4 210.6,487.1 211,487.1 211,463.1 
		210.6,463.1 210.6,446.7 211,446.7 211,426.7 210.6,426.7 210.6,410.4 201.8,410.4 201.8,370.4 210.6,370.4 210.6,354.1 211,354.1 
		211,334.1 210.6,334.1 210.6,317.7 211,317.7 211,293.7 210.6,293.7 210.6,282.3 210.5,281.9 187.9,281.9 187.9,282.3 187.7,282.3 
		187.7,285.8 187.7,286.3 187.7,288.8 186.9,288.8 186.9,294.2 187.7,294.2 187.7,295.4 186.6,295.4 161.4,295.4 161.4,291.6 
		162,291.6 162,294.8 186.3,294.8 186.3,288.8 185.7,288.8 185.7,288.2 186.6,288.2 187,288.2 187,286.5 162,286.5 162,288.8 
		161.4,288.8 161.4,286.3 161.4,285.8 161.4,282.3 156.5,282.3 156.3,282.4 156.3,333.2 156.5,333.2 156.5,346.4 161.7,346.4 
		161.7,344 161.7,343.2 166.5,343.2 166.5,336.3 166.5,336.1 166.5,335.7 161.5,335.7 161.5,328.4 161.5,327.4 161.5,318 167.1,318 
		167.1,313 161.5,313 161.5,312.4 167.4,312.4 174.5,312.4 175.6,312.4 187.3,312.4 198.5,312.4 198.5,347.9 197.4,347.9 
		187.6,347.9 187.6,348.3 187.6,355.2 187.6,355.6 187.6,356.9 187.6,357.2 187.6,364.6 187.6,364.9 187.6,366.3 187.6,374 
		175.3,374 173.5,374 173.5,373.8 173.2,373.8 173.2,373.9 155.9,373.9 155.9,406.4 156.5,406.4 156.5,407.4 156.5,409.1 
		156.5,409.4 165.4,409.4 165.4,413.2 165.2,413.2 165.2,417.4 165.4,417.4 165.4,422.8 165.2,422.8 165.2,426.9 165.4,426.9 
		165.4,430.9 165.4,432.4 185.7,432.4 187.3,432.4 195.8,432.4 197.4,432.4 198.5,432.4 198.5,438.2 197.4,438.2 197.4,440.8 
		198.5,440.8 198.5,468.4 197.4,468.4 197.4,468.6 187.3,468.6 187.3,468.4 177.2,468.4 176,468.4 167.3,468.4 161.5,468.4 
		161.5,467.8 167.1,467.8 167.1,459.8 162.1,459.8 162.1,462.8 161.5,462.8 161.5,459.6 161.5,445.6 161.5,443.3 161.5,441.7 
		156.5,441.7 156.5,447.6 156.3,447.6 156.3,498.3 156.5,498.3 	"/>
	<polygon id="_x31_655103" class="st0" points="203.6,665.2 203.6,651.6 203.9,651.6 203.9,647.4 193.1,647.4 193.1,655.9 
		193.1,661.5 193.1,674.4 204.2,674.4 204.2,667.7 203.6,667.7 	"/>
	<polygon id="_x32_034279" class="st0" points="469.2,87.6 469.2,102.4 468.6,102.4 468.6,87.6 458,87.6 458,101.7 458,109.5 
		468.2,109.5 468.6,109.5 468.6,105.7 469.2,105.7 469.2,109.5 480,109.5 480,87.6 	"/>
	<polygon id="_x32_034283" class="st0" points="174.3,313 167.7,313 167.7,318.3 167.7,320.3 167.1,320.3 167.1,318.6 162.1,318.6 
		162.1,327.2 169.6,327.2 169.6,328.4 169.6,335.3 173.3,335.3 175.3,335.3 175.3,323.8 174.3,323.8 	"/>
	<polygon id="_x32_039228" class="st0" points="512.7,690 512.7,690.7 512.7,699.9 512.7,700.3 572.3,700.3 572.3,674.8 
		566.3,674.8 566.3,674.2 560.7,674.2 559.7,674.2 559.7,674.8 530.3,674.8 530.3,674.2 524.5,674.2 523.7,674.2 523.7,674.8 
		518.5,674.8 518.5,675.6 518.5,690 	"/>
	<polygon id="_x32_039241" class="st0" points="143.4,553.9 136.7,553.9 136.7,577.4 136.7,583.6 136.7,585 155.6,585 155.6,572.9 
		149.9,572.9 149.9,567.9 149.9,567.2 143.4,567.2 	"/>
	<polygon id="_x32_062590" class="st0" points="135.2,249.4 150.1,249.4 150.1,238.1 135.2,238.1 	"/>
	<polygon id="_x32_063239" class="st0" points="555.1,113 554.3,113 554.3,119.6 555.1,119.6 555.1,123.1 625.7,123.1 641.9,123.1 
		641.9,113.9 642.4,113.9 642.4,108.5 642.7,108.5 642.7,107.3 641.9,107.3 641.9,87.3 561.7,87.3 561.7,87.4 561.7,108.9 
		555.1,108.9 	"/>
	<polygon id="_x32_361433" class="st0" points="162.4,255.4 168.1,255.4 168.1,238.4 168.1,237.8 168.1,229.9 156.8,229.9 
		156.8,237.7 156.8,255.4 	"/>
	<polygon id="_x32_361435" class="st0" points="661.7,566 661.7,574.8 663.2,574.8 672.1,574.8 672.1,566 663.5,566 	"/>
	<polygon id="_x32_361439" class="st0" points="156.7,226.7 164.1,226.7 164.1,217 156.7,217 	"/>
	<polygon id="_x32_445709" class="st0" points="629,518.4 629,527.7 658.4,527.7 660.7,527.7 660.7,518.4 	"/>
	<polygon id="_x32_445950" class="st0" points="674.4,518.7 674.4,533.4 674.4,533.8 674.4,545 662.7,545 662.7,550.1 685.7,550.1 
		685.7,549.1 685.7,519.7 685.7,518.7 	"/>
	<polygon id="_x32_446140" class="st0" points="646.7,539.1 647,539.1 647,528.7 628.4,528.7 628.4,538.1 633.7,538.1 635,538.1 
		635.3,538.1 635.5,538.1 635.5,532.4 638,532.4 638,550.1 638.7,550.1 638.7,550.4 642.7,550.4 642.7,550.1 646.7,550.1 	"/>
	<polygon id="_x32_446141" class="st0" points="636.8,377.4 636.8,378.7 637.4,378.7 637.4,389.1 636.8,389.1 636.8,402.1 
		637.5,402.1 637.5,402.9 638.4,402.9 648.7,402.9 650.8,402.9 650.8,398.4 646,398.4 646,382.4 650.8,382.4 650.8,377.9 
		648.7,377.9 638,377.9 638,377.4 	"/>
	<polygon id="_x32_446142" class="st0" points="203.9,651.6 204.2,651.6 204.2,665.2 204.2,667.7 204.2,674.4 232.6,674.4 
		232.6,663.7 215,663.7 215,651.8 215,647.4 211.5,647.4 211.5,647.6 211.5,649.7 209,649.7 209,647.6 209,647.4 203.9,647.4 	"/>
	<polygon id="_x32_446178" class="st0" points="661.7,206 661.7,214.8 663.5,214.8 672.1,214.8 672.1,206 	"/>
	<polygon id="_x32_476939" class="st0" points="177.5,445.5 177.5,467.8 187,467.8 187,460 183.7,460 183.7,453.6 187,453.6 
		187,445.5 	"/>
	<polygon id="_x32_476941" class="st0" points="380.5,110.4 380.5,86.9 364,86.9 364,89.8 364,99.8 364,101.8 364,110.2 	"/>
	<polygon id="_x32_485213" class="st0" points="436.1,110.4 457,110.4 457,101.8 457,99.8 457,89.8 457,89.5 457,87.4 457,87.2 
		457,86.9 436.1,86.9 	"/>
	<polygon id="_x32_489588" class="st0" points="628,447.7 628,473.1 635.4,473.1 635.4,455.1 639,455.1 641.4,455.1 641.4,455.7 
		639.4,455.7 639.4,478.4 651.4,478.4 651.4,454.4 649.7,454.4 649.7,453.8 651.7,453.8 652.7,453.8 652.7,451.7 652.7,451.4 
		652.7,447.7 	"/>
	<polygon id="_x32_489589" class="st0" points="686.1,461.2 686.1,448.4 661.4,448.4 661.4,451.4 661.4,459.7 660.7,459.7 
		660.7,451.7 653.4,451.7 653.4,454.1 653.4,467.1 659.1,467.1 664.7,467.1 664.7,467.8 659.4,467.8 659.4,476.4 686.1,476.4 
		686.1,463.6 684.8,463.6 672.4,463.6 672.4,464.9 671.7,464.9 671.7,463.3 671.7,461.6 671.7,459.9 672.4,459.9 672.4,461.2 
		684.8,461.2 	"/>
	<polygon id="_x32_668666" class="st0" points="341.7,97.6 343.6,97.6 343.6,87.1 342.6,87.1 342.6,87.5 329.6,87.5 329.6,87.1 
		328.6,87.1 328.6,97.6 	"/>
	<polygon id="_x32_668667" class="st0" points="341.4,107.5 341.4,98.3 328.6,98.3 328.6,107.5 	"/>
	<polygon id="_x32_733203" class="st0" points="645.7,255.1 645.7,262.1 663.5,262.1 663.5,250.7 680.1,250.7 680.1,230.7 
		645.7,230.7 645.7,250.8 	"/>
	<polygon id="_x32_744746" class="st0" points="673.7,534.2 658.8,534.2 658.8,544.3 662.1,544.3 662.7,544.3 673.7,544.3 	"/>
	<polygon id="_x32_776911" class="st0" points="647.7,544.4 658,544.4 658,534.2 658,533.8 658,528.7 647.7,528.7 647.7,539.1 	"/>
	<polygon id="_x32_776915" class="st0" points="673.8,533.4 673.8,518.7 661.7,518.7 661.7,528.7 658.7,528.7 658.7,533.4 
		658.8,533.4 	"/>
	<polygon id="_x32_814580" class="st0" points="146.2,645 146.2,635.2 137.4,635.2 137.4,645 	"/>
	<polygon id="_x32_814581" class="st0" points="146.2,655.6 146.2,645.6 137.4,645.6 137.4,647.7 138.6,647.7 138.6,649.1 
		137.4,649.1 137.4,655.6 	"/>
	<polygon id="_x32_814584" class="st0" points="173,623.9 164.6,623.9 164.6,625.9 164.6,626.3 164.6,634.4 176.2,634.4 
		176.2,626.3 176.2,626 176.2,625.4 173,625.4 	"/>
	<polygon id="_x32_814587" class="st0" points="163.6,641.1 160.6,641.1 160.3,641.1 152.6,641.1 152.6,649.8 155.5,649.8 
		163.6,649.8 163.6,648.5 163.6,648.2 	"/>
	<polygon id="_x32_814628" class="st0" points="137.4,625.3 137.4,625.9 137.4,626.3 137.4,634.6 146.5,634.6 152.1,634.6 
		152.1,626.3 152.1,625.9 152.1,623.9 138.6,623.9 138.6,625.3 	"/>
	<polygon id="_x32_826918" class="st0" points="390.9,95 425.7,95 425.7,94.4 425.3,94.4 425.3,87.9 420.5,87.9 420.5,87.6 
		396,87.6 396,87.9 391.3,87.9 391.3,94.4 390.9,94.4 	"/>
	<polygon id="_x32_900851" class="st0" points="344.7,98.3 342,98.3 342,107.5 342,108.2 342,108.5 342,109.5 353.6,109.5 
		363,109.5 363,101.8 363,89.1 360.5,89.1 360.5,87.6 353.4,87.6 353.4,102.1 352.8,102.1 352.8,87.6 344.7,87.6 344.7,98 	"/>
	<polygon id="_x33_247083" class="st0" points="196,639.6 196,627 190.3,627 190.3,639.6 	"/>
	<polygon id="_x33_363541" class="st0" points="337.6,673.1 320,673.1 320,674.6 320,675.1 320,689.1 323.9,689.1 323.9,696.8 
		326.2,696.8 326.2,700.1 333.2,700.1 333.4,700.1 362.2,700.1 362.2,699.6 354.9,699.6 354.9,697.6 353.7,697.6 353.7,699.6 
		348.6,699.6 338.4,699.6 337.6,699.6 	"/>
	<polygon id="_x33_446285" class="st0" points="177.3,609.7 187.2,609.7 187.2,591.5 186.2,591.5 186.2,591.8 179.7,591.8 
		179.7,591.4 177.2,591.4 177.2,601.8 177.3,601.8 177.3,604.9 177.2,608.2 	"/>
	<polygon id="_x33_447006" class="st0" points="150.2,262 150.2,250.1 135.2,250.1 135.2,262 	"/>
	<polygon id="_x33_447224" class="st0" points="680,251.4 664.2,251.4 664.2,262.1 680,262.1 	"/>
	<polygon id="_x33_464750" class="st0" points="175.9,467.8 175.9,445.8 162.1,445.8 162.1,459.4 167.1,459.4 167.1,457.8 
		167.5,457.8 167.5,459.6 167.5,467.8 	"/>
	<polygon id="_x33_650486" class="st0" points="461,696.2 461,678.4 460.6,678.4 435.9,678.4 435.9,680.4 435.9,687.4 435.3,687.4 
		435.3,680.7 428,680.7 428,696.2 	"/>
	<polygon id="_x33_650491" class="st0" points="497.4,675 480,675 480,675.5 480,676.9 480,677.7 463.5,677.7 463.5,689.1 
		463.5,689.6 479.8,689.6 497.4,689.6 497.4,675.5 	"/>
	<polygon id="_x33_650492" class="st0" points="509,690.4 509,690 503,690 503,690.4 499.9,690.4 499.9,691.4 497.4,691.4 
		497.4,689.6 479.8,689.6 463.7,689.6 463.5,689.6 463.5,700.3 472.7,700.3 472.7,700.9 478.9,700.9 478.9,700.3 481.7,700.3 
		481.7,700.9 487.9,700.9 487.9,700.3 498.1,700.3 498.1,699.3 497.4,699.3 497.4,697.4 500.1,697.4 500.1,699.3 498.5,699.3 
		498.5,700.3 512.7,700.3 512.7,690.4 	"/>
	<polygon id="_x33_667491" class="st0" points="247.6,677.7 247.6,694.3 280.6,694.3 280.6,680.7 273.3,680.7 273.3,686.7 
		272.7,686.7 272.7,680.4 272.7,677.7 247.9,677.7 	"/>
	<polygon id="_x33_667492" class="st0" points="283.6,678.4 283.6,695 294.3,695 294.3,693 294.9,693 294.9,695 316.6,695 
		316.6,689.4 316.6,689.1 316.6,680.7 309.3,680.7 309.3,686.7 308.7,686.7 308.7,680.4 308.7,678.4 283.9,678.4 	"/>
	<polygon id="_x33_730808" class="st0" points="391.3,689.4 392,689.4 392,696.2 425,696.2 425,678.1 424.6,678.1 399.9,678.1 
		399.9,680.4 399.9,687.4 399.3,687.4 399.3,680.7 392,680.7 392,689.1 391.3,689.1 	"/>
	<polygon id="_x33_776339" class="st0" points="172.8,207.9 172.8,215.3 177.6,215.3 187,215.3 187,207.9 183,207.9 183,207.3 
		187,207.3 187.3,207.3 190.7,207.3 190.7,183.5 175.6,183.5 175.6,194 174.1,194 174.1,207.3 175.6,207.3 175.6,207.9 173.8,207.9 
			"/>
	<polygon id="_x33_776342" class="st0" points="172.8,156.4 172.8,182.9 175.3,182.9 191,182.9 192.3,182.9 192.3,175.6 181,175.6 
		181,172.9 181,170.9 181.6,170.9 181.6,172.6 211.7,172.6 211.7,169.2 211.7,165.8 211.7,156.4 197.5,156.4 197.5,158.4 
		192.5,158.4 192.5,156.4 	"/>
	<polygon id="_x33_820109" class="st0" points="634,550.4 634.4,550.4 634.4,540.4 633,540.4 633,539.1 628,539.1 628,550.4 	"/>
	<polygon id="_x33_820134" class="st0" points="660.6,263.1 627.4,263.1 627.4,272.8 660.6,272.8 	"/>
	<polygon id="_x33_820136" class="st0" points="638,230.7 638,248.4 635.5,248.4 635.5,242.8 634.9,242.8 634.7,242.8 628.4,242.8 
		628.4,262.1 645.1,262.1 645.1,255.1 644.7,255.1 644.7,250.8 645.1,250.8 645.1,230.7 	"/>
	<polygon id="_x33_820158" class="st0" points="628,230.4 628,241.8 634,241.8 634,230.4 	"/>
	<polygon id="_x33_932300" class="st0" points="378.2,689.8 378.2,700.1 391.6,700.1 391.6,699.6 391,699.6 391,689.8 	"/>
	<polygon id="_x33_932301" class="st0" points="362.5,699.2 362.5,699.6 362.2,699.6 362.2,699.9 362.2,700.1 377.4,700.1 
		377.4,689.6 362.5,689.5 	"/>
	<polygon id="_x33_932304" class="st0" points="361.8,699.2 361.8,688.8 377.8,688.8 378.7,688.8 378.7,682.7 362.3,682.7 
		362.3,675.1 355.2,675.1 355.2,675.7 355.2,677.3 353.4,677.3 353.4,675.5 354.3,675.5 354.3,675.1 354.3,674.9 354.3,673.7 
		349.1,673.7 338.6,673.7 338.6,699.2 348.3,699.2 348.3,680.7 348.9,680.7 348.9,699.2 353.5,699.2 353.5,697.3 355.1,697.3 
		355.1,699.2 	"/>
	<polygon id="_x33_932537" class="st0" points="156.5,433.6 156.5,441.3 161.9,441.3 161.9,443.1 187,443.1 187,442.6 187,433.6 
		165.9,433.6 165.9,438.7 165.5,438.7 165.5,433.6 	"/>
	<polygon id="_x33_979691" class="st0" points="146.8,635.2 146.8,645.3 146.8,655.6 150.5,655.6 155.2,655.6 155.2,650.6 
		151.8,650.6 151.8,640.3 160.3,640.3 160.3,635.2 152.4,635.2 	"/>
	<polygon id="_x33_979692" class="st0" points="160.6,634.6 164,634.6 164,634.4 164,626.3 164,625.9 164,623.9 152.7,623.9 
		152.7,625.9 152.7,626.3 152.7,634.6 160.3,634.6 	"/>
	<polygon id="_x33_979698" class="st0" points="148.9,661.2 150.2,661.2 150.2,656.2 146.5,656.2 137.4,656.2 137.4,661.2 
		139,661.2 139,661.8 137.4,661.8 137.4,672.7 148.9,672.7 	"/>
	<polygon id="_x33_979699" class="st0" points="178.9,656.2 178.9,661.2 180.3,661.2 180.3,674.2 191.9,674.2 191.9,661.8 
		190.3,661.8 190.3,661.2 192.1,661.2 192.5,661.2 192.5,656.2 183.4,656.2 183.1,656.2 	"/>
	<polygon id="_x33_979700" class="st0" points="164.3,662.1 164.3,656.2 155.5,656.2 150.8,656.2 150.8,661.5 150.8,672.9 
		152.7,672.9 152.7,674.4 164.3,674.4 164.3,662.7 157.8,662.7 157.8,662.1 	"/>
	<polygon id="_x33_979701" class="st0" points="164.9,656.2 164.9,662.1 171.5,662.1 171.5,662.7 164.9,662.7 164.9,674.4 
		176.6,674.4 176.6,672.9 178.3,672.9 178.3,661.5 178.3,661.2 178.5,661.2 178.5,656.2 	"/>
	<polygon id="_x33_979867" class="st0" points="135.2,601.4 169,601.4 169,587.4 164.3,587.4 164.3,589.7 163.7,589.7 163.7,587.3 
		163.7,585.6 169,585.6 169.3,585.6 171.6,585.6 176.6,585.6 176.6,578.2 171.6,578.2 156.6,578.2 156.6,585.7 156.6,587.1 
		156.6,589.7 153,589.7 153,587.4 136.1,587.4 135.2,587.4 	"/>
	<polygon id="_x33_979868" class="st0" points="146,622.9 164,622.9 171.6,622.9 173.7,622.9 176.6,622.9 176.6,615.6 171.6,615.6 
		163.1,615.6 152.2,615.6 152.2,613.7 152.2,611.4 152.9,611.4 152.9,613.4 162.7,613.4 162.7,604.7 135.2,604.7 135.2,621.1 
		136.1,621.1 136.1,620.7 136.2,620.7 138.6,620.8 145.3,620.7 145.3,613.4 146,613.4 146,621.1 	"/>
	<polygon id="_x33_980728" class="st0" points="183.1,650 183.1,635.2 176.6,635.2 176.4,635.2 164.6,635.2 164.3,635.2 
		160.9,635.2 160.9,640.3 160.9,640.5 164.2,640.5 164.2,647.9 164.4,647.9 172.6,647.9 172.6,646.9 175.7,646.9 175.7,650 	"/>
	<polygon id="_x34_050297" class="st0" points="651.4,377.8 651.6,377.8 651.6,382.4 655,382.4 655,380.4 670.2,380.4 670.2,381 
		655.7,381 655.7,383 651.6,383 651.1,383 646.7,383 646.7,397.8 650.8,397.8 651.6,397.8 653.9,397.8 654,397.8 655.7,397.8 
		655.7,399.5 655.7,399.8 670.2,399.8 670.2,400.4 655.1,400.4 655.1,399.7 653.9,399.7 653.9,398.4 651.6,398.4 651.6,403.3 
		651.4,403.3 651.4,406.1 661,406.1 661,405.9 670.8,405.9 670.8,406.1 685.7,406.1 685.7,399 676.8,399 673.2,399 673.2,398.4 
		676.5,398.4 676.5,382.4 673.2,382.4 673.2,381.8 676.8,381.8 685.7,381.8 685.7,374.7 651.4,374.7 651.4,377.4 651.4,377.6 	"/>
	<polygon id="_x34_099822" class="st0" points="175.9,553.8 169,553.8 169,566.6 175.9,566.6 	"/>
	<polygon id="_x34_099853" class="st0" points="168.8,256.1 162.7,256.1 162.7,262 176.6,262 176.6,241.9 176.6,238.6 176.6,238.4 
		169.4,238.4 168.8,238.4 	"/>
	<polygon id="_x34_124139" class="st0" points="187.2,258 187.2,228.4 178,228.4 178,237.1 178,237.8 178,238.6 177.9,241.9 
		178,262.7 187.2,262.7 	"/>
	<polygon id="_x34_128074" class="st0" points="479.7,674.7 480,675 480.2,675 497,675 497.4,675 497.4,674.7 500,674.7 
		511.9,674.7 518.2,674.7 518.4,674.2 523.7,674.2 524.5,674.2 524.5,673.6 530.5,673.6 530.5,674.2 559.7,674.2 560.7,674.2 
		560.7,673.7 566.6,673.7 566.6,674.2 572.9,674.2 572.9,673.9 584.8,673.9 553.7,627.3 553.5,627 525.1,638.8 526.2,644.3 
		480.3,644.3 442.3,644.3 442.3,638.8 410.3,638.8 410.3,644.3 408.3,644.3 406.3,644.3 406.3,638.8 391.3,638.8 391.3,674.7 
		392,674.7 392,680.1 399.3,680.1 399.3,677.8 399.3,674.7 424.6,674.7 427.6,674.7 428,674.7 435.6,674.7 460.6,674.7 461,674.7 	
		"/>
	<polygon id="_x34_579107" class="st0" points="628,307.7 628,333.1 652.7,333.1 652.7,329.4 652.7,327 651.7,327 649.7,327 
		649.7,326.4 651.4,326.4 651.4,302.4 639.4,302.4 639.4,325.1 641.4,325.1 641.4,325.7 639,325.7 635.4,325.7 635.4,307.7 	"/>
	<polygon id="_x34_579108" class="st0" points="686.1,332.4 686.1,319.5 684.8,319.5 672.4,319.5 672.4,320.9 671.7,320.9 
		671.7,319.2 671.7,317.6 671.7,315.9 672.4,315.9 672.4,317.2 684.8,317.2 686.1,317.2 686.1,304.4 659.4,304.4 659.4,313.1 
		664.7,313.1 664.7,313.7 659.1,313.7 653.4,313.7 653.4,326.7 653.4,329.1 660.7,329.1 660.7,321.1 661.4,321.1 661.4,329.4 
		661.4,332.4 	"/>
	<polygon id="_x34_579333" class="st0" points="658.7,304.1 658.7,302.4 653.4,302.4 653.4,313.1 658.7,313.1 	"/>
	<polygon id="_x34_579334" class="st0" points="653.4,467.8 653.4,478.4 658.7,478.4 658.7,476.7 658.7,467.8 	"/>
	<polygon id="_x34_592991" class="st0" points="157.7,371 172.6,371 172.6,353.3 167.5,353.3 167.5,352.9 172.8,352.9 172.9,344.2 
		162.1,344.2 162.1,346.9 156.5,346.9 156.5,352.4 157.5,352.4 162.7,352.4 162.7,352.8 157.7,352.8 	"/>
	<polygon id="_x34_594741" class="st0" points="210.6,371.3 202.6,371.3 202.6,409.5 210.6,409.5 	"/>
	<polygon id="_x34_613875" class="st0" points="186.6,518.3 177.2,518.3 177.2,519.6 177.2,520.2 177.2,529.1 177.2,529.8 
		177.2,537.9 177.3,538.8 177.2,544.2 184.2,544.2 186.6,544.2 	"/>
	<polygon id="_x34_613894" class="st0" points="220.9,149.4 212.4,149.4 212.4,151.9 212.3,156.1 212.3,165.8 212.4,168.9 
		214.8,168.9 214.8,168.5 220,168.5 220,168.9 220.9,168.9 220.9,154.9 	"/>
	<polygon id="_x34_613899" class="st0" points="224.1,140.7 230.1,140.7 230.1,122.1 211.4,122.1 211.4,136.8 211.5,136.8 
		218.9,136.8 218.9,140.7 222.8,140.7 222.8,140 224.1,140 	"/>
	<polygon id="_x34_639707" class="st0" points="156.1,566.6 156.1,553.9 147,553.9 144,553.9 144,566.6 149.9,566.6 150.3,566.6 	
		"/>
	<polygon id="_x35_795438" class="st0" points="163.7,605 163.7,614.5 176.2,614.5 176.2,602.4 170.6,602.4 170.6,605 	"/>
	<polygon id="_x35_796103" class="st0" points="136.7,537.3 146.4,537.3 146.4,525.1 136.7,525.1 	"/>
	<polygon id="_x35_796544" class="st0" points="150.4,524.1 150.4,524.7 147.4,524.7 147.4,533 153,533 153,529.9 156.1,529.9 
		156.1,528 156.1,527.6 156.1,518.2 152.5,518.2 152.5,517.6 138.5,517.6 138.5,518.2 136.1,518.2 136.1,517.6 135.2,517.6 
		135.2,524.1 136.1,524.1 137,524.1 147,524.1 	"/>
	<polygon id="_x35_826338" class="st0" points="645.4,205.4 638.7,205.4 638.7,215.4 644.4,215.4 644.4,211.1 645.4,211.1 	"/>
	<polygon id="_x35_826340" class="st0" points="638.1,205.4 628,205.4 628,215.4 638.1,215.4 	"/>
	<polygon id="_x35_826355" class="st0" points="644.4,565.4 638.7,565.4 638.7,575.4 645.4,575.4 645.4,569.7 644.4,569.7 	"/>
	<polygon id="_x35_826357" class="st0" points="638.1,565.4 628,565.4 628,575.4 638.1,575.4 	"/>
	<polygon id="_x35_836235" class="st0" points="363.3,674.1 363.3,681.7 378.9,681.7 380,681.7 385.3,681.7 385.3,673.4 
		367.5,673.4 363.3,673.4 	"/>
	<polygon id="_x35_900236" class="st0" points="135.2,215.9 135.2,226 135.2,226.2 135.2,237.4 150.5,237.4 150.8,237.4 
		156.1,237.4 156.1,229.5 156.1,227 156.1,216.4 156.1,215.9 	"/>
	<polygon id="_x36_002238" class="st0" points="173.2,518.2 173.2,517.6 168.5,517.6 168.5,518.2 166,518.2 166,521.4 165.4,521.4 
		165.4,525.3 166,525.3 166,527.6 166,528 166,529.2 168.5,529.2 168.8,529.2 169.1,529.2 175.2,529.2 175.2,520.2 174.2,520.2 
		174.2,518.2 	"/>
	<polygon id="_x36_002239" class="st0" points="177.2,215.9 172.8,215.9 172.3,215.9 165.4,215.9 165.4,216.4 165.4,226.6 
		169.4,226.6 169.4,229.2 169.4,229.5 169.4,237.1 177.2,237.1 177.2,228.1 	"/>
	<polygon id="_x36_002240" class="st0" points="162.1,256.1 156.1,256.1 156.1,238 150.8,238 150.8,249.7 150.8,250 150.8,262 
		151,262 156.8,262 161.7,262 162.1,262 	"/>
	<polygon id="_x36_002243" class="st0" points="169,567.9 168.5,567.9 156.4,567.9 150.9,567.9 150.9,571.9 156.6,571.9 
		156.6,577.6 171.6,577.6 176.6,577.6 176.6,567.9 	"/>
	<polygon id="_x36_130325" class="st0" points="187,313 175.8,313 175.8,323.7 175.8,335.5 175.8,337.5 173.2,337.5 173.2,336.5 
		166.9,336.5 166.9,343.2 173.1,343.2 175.5,343.2 175.5,373.4 187,373.4 187,366.3 187,364.9 187.6,364.9 187.6,364.6 187.6,357.2 
		187.6,356.9 187,356.9 187,355.6 187,355.5 184.5,355.5 184.5,348 187,348 187,347.6 187,313.5 	"/>
	<polygon id="_x36_206118" class="st0" points="306.3,88.9 292.3,88.9 292.3,89.7 292.3,102.8 292.3,104.5 316.5,104.5 317,104.5 
		317,96.5 320.3,96.5 320.3,102.5 327.6,102.5 327.6,98.3 327.6,91.5 325.3,91.5 325.3,90.9 327.6,90.9 327.6,87.4 328.3,87.4 
		327.9,87.2 327.9,86.9 320.3,86.9 320.3,87.9 320.3,89.9 319.7,89.9 319.7,88.2 306.3,88.2 	"/>
	<polygon id="_x36_206119" class="st0" points="281,96.5 284.3,96.5 284.3,102.5 291.6,102.5 291.6,90 283.7,90 283.7,88.2 
		274,88.2 274,89.5 271.4,89.5 271.4,88.2 252.3,88.2 252.3,96.9 256.3,96.9 256.3,104.5 280.5,104.5 281,104.5 	"/>
	<polygon id="_x36_206457" class="st0" points="246,121.1 255.7,121.1 255.7,113.8 246,113.8 	"/>
	<polygon id="_x36_206470" class="st0" points="244.3,96.9 251.7,96.9 251.7,88.2 244.3,88.2 	"/>
	<polygon id="_x36_207754" class="st0" points="524.3,88.9 510.3,88.9 510.3,88.2 496.9,88.2 496.9,89.6 496.3,89.6 496.3,87.9 
		496.3,86.9 486.3,86.9 486.3,90.9 489,90.9 489,97.1 489,99.1 489,102.5 496.3,102.5 496.3,96.3 499.6,96.3 499.6,104.2 
		499.9,104.2 524.3,104.2 524.3,102.8 524.3,102.5 524.3,89.7 	"/>
	<polygon id="_x36_207755" class="st0" points="532.3,96.3 536,96.3 536,104.5 560.7,104.5 560.7,88.7 551.6,88.7 551.6,88 
		545.1,88 545.1,89.3 542.7,89.3 542.7,88 533.1,88 532.9,88 532.9,90 525,90 525,102.5 532.3,102.5 	"/>
	<polygon id="_x36_207761" class="st0" points="488.3,102.8 488.3,99.4 481,99.4 481,108.2 488.3,108.2 	"/>
	<polygon id="_x36_207778" class="st0" points="488.3,96.8 488.3,91.5 485.7,91.5 485.7,86.9 480.9,86.9 480.9,87.2 481,87.4 
		481,96.8 	"/>
	<polygon id="_x36_331052" class="st0" points="244.3,97.9 244.3,113.1 244.5,113.1 244.5,112.8 255.3,112.8 255.3,97.9 	"/>
	<polygon id="_x37_862084" class="st0" points="190.1,640.2 189.9,640.2 189.9,646.4 192.5,646.4 201.2,646.4 201.2,640.2 
		196.4,640.2 	"/>
	<polygon id="_x38_246906" class="st0" points="183.7,635.2 183.7,650 183.7,650.3 183.7,655.6 192.5,655.6 192.5,647.4 
		188.9,647.4 188.9,635.2 	"/>
	<polygon id="_x38_759001" class="st0" points="183.1,650.6 175.6,650.6 172.6,650.6 172.6,648.5 164.4,648.5 164.4,650.6 
		155.9,650.6 155.9,655.6 164.6,655.6 178.5,655.6 178.6,655.6 183.1,655.6 	"/>
	<polygon id="_x38_771188" class="st0" points="187.6,313.5 187.6,347.3 197.4,347.3 197.4,313.5 	"/>
	<polygon id="_x38_774563" class="st0" points="187.6,433 187.6,433.4 187.6,442.6 187.6,443.3 187.6,445.3 187.6,445.5 
		187.6,454.2 184.4,454.2 184.4,459.4 187.6,459.4 187.6,467.8 197.4,467.8 197.4,440.8 197.4,438.2 197.4,433 	"/>
	<polygon id="_x31_0859532" class="st0" points="677.1,398.4 685.7,398.4 685.7,398.1 685.7,382.7 685.7,382.4 677.1,382.4 	"/>
	<polygon id="_x31_0959088" class="st0" points="680.7,262.1 685.7,262.1 685.7,261.1 685.7,251.7 685.1,251.7 685.1,250.7 
		685.7,250.7 685.7,242.1 685.1,242.1 685.1,241.1 685.7,241.1 685.7,231.7 685.7,230.7 680.7,230.7 680.7,250.7 680.7,251.1 	"/>
	<polygon id="_x31_1790770" class="st0" points="175.9,530.5 175.6,530.5 169.4,530.5 169.4,543.6 175.9,543.6 175.9,538.8 
		175.9,537.9 	"/>
	<polygon id="_x31_3993451" class="st0" points="672.1,575.4 663.2,575.4 663.2,584.8 672.1,584.8 	"/>
	<polygon id="_x31_3993453" class="st0" points="660.9,193.4 660.9,205.4 672.1,205.4 672.1,196 663.2,196 663.2,195 683.2,195 
		683.2,225.9 670.5,225.9 665.4,225.8 663.5,225.9 663,225.9 663,215.4 661,215.4 661,229.7 686.3,229.7 686.3,193.4 	"/>
	<polygon id="_x31_3993482" class="st0" points="155.2,499.7 155.2,498.4 155.2,498.3 155.6,498.3 155.6,447.6 155.2,447.6 
		155.2,441.5 155.2,432.7 155.2,432.5 155.2,409.8 155.2,409.4 155.2,409.1 155.2,407.4 155.2,406.4 155.9,406.4 155.9,374.3 
		155.9,374 155.2,374 155.2,373.2 155.2,371.1 155.2,352.6 155.2,346.7 155.2,333.2 155.3,282.4 155.2,281.1 155.9,281.1 
		161.4,281.1 161.7,281.1 187.4,281.1 187.9,281.1 187.9,263.2 177.2,263.2 162.4,263.2 161.7,263.2 156.8,263.2 151,263.2 
		150.5,263.2 135.2,263.2 135.2,517.6 136.1,517.6 138.5,517.6 152.5,517.6 168.5,517.6 173.2,517.6 176.9,517.6 177.2,517.6 
		187.3,517.6 187.3,499.7 161.6,499.7 161.4,499.7 155.9,499.7 	"/>
	<polygon id="_x31_3993484" class="st0" points="588.4,424.4 593.2,424.4 593.2,462.4 593.2,491.6 630,491.6 630,487.6 646.7,487.6 
		646.7,491.6 660.6,491.6 660.6,479.1 659.1,479.1 653.1,479.1 651.7,479.1 639,479.1 635.4,479.1 635.4,473.7 628,473.7 628,478.8 
		627.4,478.8 627.4,473.4 627.4,447.4 627.4,445.7 653.4,445.7 653.4,447.4 653.4,451.1 660.7,451.1 660.7,448.1 660.7,446.1 
		661.1,446.1 661.1,407.1 650.4,407.1 650.4,404.1 648.7,404.1 638.4,404.1 636.8,404.1 636.8,403.8 636.4,403.8 636.4,402.1 
		636.4,391.7 636.4,389.1 636.4,378.7 636.4,376.7 636.8,376.7 638,376.7 638.4,376.7 648.7,376.7 650.4,376.7 650.4,374.1 
		588.4,374.1 588.4,388.4 593.2,388.4 593.2,390.4 593.2,392.4 588.4,392.4 	"/>
	<polygon id="_x31_3993487" class="st0" points="431,154.7 457,154.7 457,140 434.2,140 434.2,139.4 457,139.4 457,110.4 
		456.8,110.4 436.1,110.4 436.1,86.9 426.3,86.9 426.3,87.1 426.3,95 426.3,96.1 390.3,96.1 390.3,95 390.3,87.6 390.3,86.9 
		380.5,86.9 380.5,110.4 364.1,110.2 363.6,110.2 363.6,139.4 382.4,139.4 382.4,140 363.6,140 363.6,154.7 385.5,154.7 	"/>
	<polygon id="_x31_5116443" class="st0" points="672.7,565.4 672.7,575.1 672.7,575.4 672.7,584.8 682.1,584.8 682.1,556 668.4,556 
		665.1,556 664.1,556 664.1,565.4 	"/>
	<polygon id="_x31_5116686" class="st0" points="672.7,205.7 672.7,215.4 664.1,215.4 664.1,224.8 665.4,224.8 670.5,224.8 
		682.1,224.8 682.1,196 672.7,196 672.7,205.4 	"/>
	<polygon id="_x31_5142680" class="st0" points="658,545 647.7,545 647.7,550.1 653.7,550.1 653.7,550.4 657,550.4 657,550.1 
		662.1,550.1 662.1,545 658.4,545 	"/>
	<polygon id="_x31_7394766" class="st0" points="166.7,335.3 169.2,335.3 169.2,328.6 162.1,328.6 162.1,335.3 	"/>
	<polygon id="_x31_9356993" class="st0" points="228.2,535.7 228.2,517.6 187.3,517.6 187.3,544.9 184.2,544.9 176.6,544.9 
		169.4,544.9 169.4,550.9 177.2,550.9 177.2,553.5 177.2,567.2 177.2,567.9 177.2,577.9 177.2,585.6 177.2,585.7 177.2,585.9 
		177.2,590.7 179.7,590.8 179.7,591.1 186.2,591.1 186.2,590.8 187.9,590.8 187.9,610.4 177.3,610.4 177.2,615.3 177.2,622.9 
		177.2,623.2 177.2,625.2 177.2,625.9 176.6,625.9 176.2,625.9 176.2,626.3 184.4,626.3 190.3,626.3 196,626.3 196.7,626.3 
		201.3,626.3 202.3,626.3 208.2,626.3 209.1,625.8 236.3,607.6 236.2,607.3 223.4,576.4 223.4,574.2 223.4,572.7 223.4,572.4 
		223.7,572.3 228.2,571.4 228.2,539.7 223.4,539.7 223.4,537.6 223.4,535.7 	"/>
	<polygon id="_x31_9357010" class="st0" points="228.2,281.2 223.4,281.2 223.4,281.1 221.5,281.1 211.9,281.1 211.9,293.7 
		211.9,317.7 211.9,334.1 211.9,354.1 211.9,370.9 211.9,409.9 211.9,426.7 211.9,446.7 211.9,463.1 211.9,487.1 211.9,499.7 
		210.5,499.7 187.3,499.7 187.3,517.4 187.3,517.6 187.4,517.6 228.2,517.6 228.2,516 228.2,503.7 223.4,503.7 223.4,501.6 
		223.4,499.7 228.2,499.7 228.2,479.7 221.9,479.7 221.9,475.7 227.2,475.7 227.2,445.3 227.2,440.2 221.9,440.2 221.9,436.2 
		230.2,436.2 230.2,418.9 230.2,397.9 230.2,382.9 230.2,361.9 230.2,344.7 221.9,344.7 221.9,340.7 227.2,340.7 227.2,335.4 
		227.2,305.1 221.9,305.1 221.9,301.1 228.2,301.1 	"/>
	<polygon id="_x31_9357029" class="st0" points="233.3,204.6 252.3,185.6 221.6,154.9 221.6,169.6 220,169.6 220,169.2 214.8,169.2 
		214.8,169.6 212.3,169.6 212.3,172.9 212.3,175.6 193,175.6 193,175.8 193,183.2 193,184.8 193,193.7 193,193.9 193,207.6 
		193,215.9 187.3,215.9 177.9,215.9 177.9,227.8 188.4,227.8 188.4,262.9 187.9,262.9 187.9,281.1 211.2,281.1 221.5,281.1 
		223.4,281.1 223.4,279.2 223.4,277.1 228.2,277.1 228.2,264.8 228.2,245.1 223.4,245.1 223.4,243.2 223.4,241.1 228.2,241.1 
		228.2,212.2 223.4,212.2 223.4,207.6 229.8,207.6 230.4,207.6 230.4,204.6 	"/>
	<polygon id="_x31_9357135" class="st0" points="343.2,154.7 363.6,154.7 363.6,140 346.4,140 346.4,139.4 363.6,139.4 363.6,110.6 
		363.6,110.5 353.6,110.5 341,110.5 341,108.5 327.9,108.5 326.9,108.5 320,108.5 316.5,108.5 291.9,108.5 284,108.5 283.6,108.5 
		283.5,108.5 280.5,108.5 261.3,108.5 256.3,108.5 256.3,113.5 256.3,121.7 245.7,121.7 244.3,121.7 243.8,121.7 231.1,121.7 
		231.1,140.9 241.3,140.9 241.3,141.7 231.1,141.7 230.8,141.7 230.3,141.7 224,141.7 222.9,141.7 218.4,141.7 211.5,141.7 
		210.8,141.7 210.8,142.9 212.3,142.9 212.3,148.7 221.6,148.7 221.6,154.9 252.3,185.6 255.2,182.6 252,179.4 254.8,176.6 
		258,179.8 276.2,161.6 274.3,157 277.4,154 278.1,154.7 278.3,154.7 300.9,154.7 	"/>
	<polygon id="_x31_9357147" class="st0" points="515.7,154.7 538.9,154.7 539.2,154 542.3,157 540.4,161.6 558.6,179.8 561.8,176.6 
		564.6,179.4 561.4,182.6 563.9,185.1 624.9,124 554.2,124 554.2,123.3 554.3,120 554.2,119.6 554.3,119.6 554.3,113 554.2,113 
		554.2,108.5 535.9,108.5 532.9,108.5 532.3,108.5 532.3,107.8 532.3,103.2 525,103.2 525,104.5 525,107.8 525,108.5 524.3,108.5 
		499.9,108.5 496.3,108.5 496.3,103.2 489,103.2 489,108.2 481,108.2 481,110.5 468.3,110.5 458.2,110.5 457,110.4 457,139.4 
		470.2,139.4 470.2,140 457,140 457,154.7 473.4,154.7 	"/>
	<polygon id="_x31_9357335" class="st0" points="588.4,356.4 588.4,374.1 650.7,374.1 650.7,373.7 661.1,373.7 661.1,334.8 
		660.7,334.8 660.7,332.7 660.7,329.7 653.4,329.7 653.4,333.4 653.4,335.1 627.4,335.1 627.4,333.4 627.4,307.4 627.4,302.1 
		628,302.1 628,307.1 635.4,307.1 635.4,301.7 639,301.7 651.7,301.7 653.1,301.7 659.1,301.7 660.6,301.7 660.6,301.6 660.6,272.8 
		627.4,272.8 627.4,263.3 627.4,262.8 627.4,242.1 627.4,229.7 628.4,229.7 628,205.4 645.4,205.4 645.7,215.4 628.5,215.4 
		628.4,229.7 654.1,229.7 661,229.7 661,215.6 661,215.1 661,205.7 660.9,205.2 660.9,193.4 660.9,121.4 643.3,121.4 642.9,121.4 
		642.9,124 624.9,124 563.9,185.1 583.3,204.6 586.2,204.6 586.2,207.6 593.2,207.6 593.2,246.4 593.2,282.4 593.2,318.4 
		593.2,356.4 	"/>
	<polygon id="_x31_9357338" class="st0" points="593.2,534.4 593.2,576.4 627,582.5 627.1,564.1 644.8,564.3 645.4,574.8 627,574.8 
		627,582.5 660.9,589.9 660.9,587.7 660.9,575.1 660.9,565.7 660.9,551.3 660.9,551.1 657,551.1 653.7,551.1 642.7,551.1 
		638.7,551.1 634.7,551.1 634,551.1 627.4,551.1 627.4,539.3 627.4,539.1 627.4,528.1 627.4,520.7 627.4,517.7 628.7,517.7 
		628.7,518 660.6,518 660.6,491.6 646.2,491.6 630.5,491.6 593.2,491.6 593.2,498.4 	"/>
	<polygon id="_x31_9357663" class="st0" points="374.3,644.3 336.3,644.3 290.4,644.3 290.6,644 260.1,631.4 233.6,671 233.6,674.7 
		247.9,674.7 273.3,674.7 273.3,677.4 273.3,680.1 280.6,680.1 280.6,674.7 283.9,674.7 309,674.7 316.9,674.7 320,674.7 320,673.1 
		337.6,673.1 337.9,672.7 355.3,672.7 355.3,674.1 359.4,674.1 362.7,674 362.7,672.7 367.5,672.7 386,672.7 386,682.1 386,688.7 
		391.3,688.7 391.3,680.4 391.3,674.7 391.3,638.8 374.3,638.8 	"/>
	<polygon id="_x31_9357666" class="st0" points="260.1,631.4 247.8,619.1 246.4,617.7 236.4,607.7 236.3,607.6 208.2,626.3 
		210.2,626.3 210.2,626.2 213,626.2 213,627 210.2,627 209.3,627 208.3,627 202.3,627 202.3,646.4 214.5,646.4 216,646.4 216,662.7 
		233.6,662.7 233.6,671 259.9,631.7 	"/>
</g>
</svg>
