<?xml version="1.0" encoding="utf-8"?>
<!-- Generator: Adobe Illustrator 24.2.3, SVG Export Plug-In . SVG Version: 6.00 Build 0)  -->
<svg version="1.1" id="Layer_1" xmlns="http://www.w3.org/2000/svg" xmlns:xlink="http://www.w3.org/1999/xlink" x="0px" y="0px"
	 viewBox="0 0 774 820.8" style="enable-background:new 0 0 774 820.8;" xml:space="preserve">
<style type="text/css">
	.st0{fill:none;stroke:#000000;}
</style>
<image style="overflow:visible;enable-background:new    ;" width="4223" height="4000" xlink:href="8EDE0FDB.png"  transform="matrix(0.2058 0 0 0.2058 0 0)">
</image>
<g>
	<polygon id="_x31_258135" class="st0" points="620.6,302.5 620.6,289.7 619.2,289.7 619.2,289.3 615.5,289.3 615.5,289.7 
		614.2,289.7 610.9,289.7 609.7,289.7 606.4,289.7 606.4,300 612.4,300 612.4,302.8 612.5,303.9 619.5,303.9 619.5,302.5 	"/>
	<polygon id="_x31_258148" class="st0" points="614.2,421.4 630.8,421.4 630.8,405.3 623.5,405.3 623.5,412 621.4,412 615.8,412 
		615.8,411.4 621.1,411.4 621.1,397.3 614.2,397.3 605.8,397.3 605.8,408.2 611.5,408.2 611.5,410.5 605.8,410.5 605.8,421.5 	"/>
	<polygon id="_x31_258231" class="st0" points="620.6,476.9 620.6,469.7 614.2,469.7 610.4,469.7 606.4,469.7 606.4,480 612.4,480 
		612.4,482.8 606.4,482.8 606.4,493 610.8,493 614.2,493 620.6,493 620.6,492.5 620.6,489.5 620.6,488.6 	"/>
	<polygon id="_x31_258234" class="st0" points="619.5,448.6 620.4,448.6 620.4,433.7 618.8,433.7 614.2,433.7 610.9,433.7 
		609.9,433.7 606.4,433.7 606.4,444 612.4,444 612.4,446.5 612.4,446.7 612.4,448.6 	"/>
	<polygon id="_x31_258237" class="st0" points="620.8,349 620.8,337.1 612.4,337.1 612.4,338.8 606.4,338.8 606.4,349 610.8,349 
		614.2,349 615.5,349 615.5,349.4 619.2,349.4 619.2,349 	"/>
	<polygon id="_x32_039251" class="st0" points="525.6,109.9 525.6,122 526.9,122 526.9,123.2 531.9,123.2 531.9,120.9 533.5,120.9 
		533.5,109.9 	"/>
	<polygon id="_x32_152660" class="st0" points="427.5,132.4 430.2,132.4 430.2,127.4 434.2,127.4 476.6,127.4 518.9,127.4 
		518.9,132.4 537.7,132.4 537.7,122.9 544,122.9 545.1,122.9 558.5,136.3 575.4,153.2 576.1,153.9 592.9,170.8 604.8,182.6 
		604.8,185.6 604.8,186.5 604.8,191.5 644.1,191.5 644.1,86.9 637.3,86.9 636.3,86.9 636.3,90.2 636.3,106.7 636.3,115 624,115 
		616,115 604,115 599.5,115 591.4,115 579.7,115 573.3,115 573.3,106.1 559,106.1 559,86.9 427.5,86.9 427.5,108.9 430.2,108.9 
		430.2,124.2 427.5,124.2 	"/>
	<polygon id="_x32_384021" class="st0" points="585.3,144 603.3,144 603.3,132.4 603.3,126.1 600.4,126.1 600.4,125.8 597,125.8 
		597,126.1 595.6,126.1 595.6,125.8 592.2,125.8 592.2,126.1 585.3,126.1 	"/>
	<polygon id="_x32_674751" class="st0" points="620.7,335.6 620.7,325.7 614.2,325.7 610.8,325.7 610.4,325.7 603.6,325.7 
		603.6,335.6 	"/>
	<polygon id="_x32_676354" class="st0" points="619.3,449.2 611.8,449.2 611.8,446.9 603.6,446.9 603.6,457 609.9,457 610.9,457 
		614.2,457 620.4,457 620.4,450.3 619.3,450.3 	"/>
	<polygon id="_x32_676865" class="st0" points="620.6,313 620.6,304.9 620.1,304.9 611.9,304.9 611.9,304.1 611.9,303.1 
		603.6,303.1 603.6,313 614.2,313 	"/>
	<polygon id="_x33_051978" class="st0" points="211.5,678.9 236.3,678.9 236.3,701.5 244.9,701.5 244.9,647.4 211.5,647.4 	"/>
	<polygon id="_x33_536708" class="st0" points="610,106.4 610,104.9 610,90.5 600.7,90.5 600.7,89.5 591.7,89.5 591.7,99.4 
		591.7,104.4 603.7,104.4 603.7,100.4 604.3,100.4 604.3,104.7 604.3,106.4 	"/>
	<polygon id="_x33_536709" class="st0" points="635.7,106.4 635.7,90.5 623,90.5 623,89.5 610.7,89.5 610.7,90.2 610.7,104.6 
		629.3,104.6 629.3,99.4 629.9,99.4 629.9,104.9 629.9,106.4 	"/>
	<polygon id="_x33_679895" class="st0" points="520.5,678.9 519.9,678.9 519.9,692 523.4,692 526.4,692 530.6,692 530.6,690.4 
		530.6,682.5 530.6,678.9 520.8,678.9 	"/>
	<polygon id="_x33_679909" class="st0" points="539.1,688.9 538.9,694.4 498.3,694.3 498.3,668.5 544.1,667.6 563.5,667.6 
		563.5,648.2 555.6,648.2 555.6,648 552.2,648 552.2,648.2 519.6,648.2 519.6,648 516.2,648 516.2,648.2 483.6,648.2 483.6,648 
		480.2,648 480.2,648.3 447.6,648.3 447.6,648 444.2,648 444.2,648.3 419.6,648.3 419.6,648 416.2,648 416.2,648.3 410.8,648.3 
		410.8,648 409.5,648 409.5,686.8 434.5,686.8 434.5,697.9 409.5,697.9 409.5,701.2 573.5,701.2 573.5,671.2 573,671.2 563.9,671.2 
		563.9,692.9 544.7,692.9 544.7,690.9 544.7,684.3 549.4,684.3 549.4,676.3 544.7,676.3 544.7,667.6 539.1,667.7 538.9,682.7 	"/>
	<polygon id="_x33_679910" class="st0" points="320.4,668.5 307.2,668.5 307.2,676 320.4,676 	"/>
	<polygon id="_x33_679911" class="st0" points="307.3,692.2 320.2,692.2 320.2,676.5 307.3,676.5 	"/>
	<polygon id="_x33_680051" class="st0" points="264.3,668.4 263.8,668.4 260.8,668.4 255.8,668.4 255.8,681.6 264.3,681.6 
		264.3,680.6 	"/>
	<polygon id="_x33_729328" class="st0" points="562.2,668.5 544.7,668.5 544.7,676.3 549.4,676.3 549.4,673.5 552.3,673.5 
		552.3,674 550,674 550,676.5 550,680 562.2,680 	"/>
	<polygon id="_x33_729348" class="st0" points="544.7,692.1 562.2,692.1 562.2,680.4 550,680.4 550,684.1 550,686.6 552.3,686.6 
		552.3,687 549.4,687 549.4,684.3 544.7,684.3 	"/>
	<polygon id="_x33_730385" class="st0" points="538.5,668.5 509.7,668.5 503.7,668.5 498.3,668.5 498.3,676.4 500.6,676.4 
		500.6,678.2 501.2,678.2 513.1,678.2 519.5,678.2 520.5,678.2 520.5,676.4 538.5,676.4 	"/>
	<polygon id="_x34_010020" class="st0" points="603.7,107 591.7,107 591.7,114.4 599.5,114.4 599.5,113.4 603.7,113.4 	"/>
	<polygon id="_x34_017324" class="st0" points="605.8,510.1 612.2,510.1 612.2,505.3 605.8,505.3 605.8,505.5 	"/>
	<polygon id="_x34_131328" class="st0" points="621.2,457.4 630.8,457.4 630.8,433.3 621.4,433.3 621.4,453.4 621.2,453.4 	"/>
	<polygon id="_x34_579879" class="st0" points="425.5,109.9 425.5,109.5 393.5,109.5 393.5,109.9 389.8,109.9 389.8,117.5 
		389.5,117.5 389.5,118.1 389.5,121.2 389.6,121.2 393,121.2 393,123.5 393,123.9 397.8,123.9 397.8,123.7 407.6,123.7 407.6,123.9 
		425.9,123.9 425.9,123.5 425.9,121.3 429.2,121.3 429.2,109.9 	"/>
	<polygon id="_x34_580512" class="st0" points="482.9,115.5 482.9,121.5 488.9,121.5 488.9,119.9 490.9,119.9 490.9,121.5 
		500.6,121.5 500.6,119.9 502.9,119.9 502.9,121.5 514.3,121.5 514.3,111.3 489.5,111.3 489.5,115.5 483.6,115.5 	"/>
	<polygon id="_x34_580513" class="st0" points="440.5,111.3 440.5,121.9 442.2,121.9 442.2,123.6 450.2,123.6 450.2,122.8 
		450.2,120.9 450.8,120.9 450.8,122.4 461.5,122.4 461.5,120.9 464.9,120.9 464.9,122.3 464.9,123.6 471.9,123.6 471.9,115.5 
		465.9,115.5 465.9,116.5 465.3,116.5 465.3,115.2 465.3,111.3 	"/>
	<polygon id="_x34_580514" class="st0" points="378.4,121.9 378.4,111.3 353.7,111.3 353.7,115.2 353.7,116.5 353.1,116.5 
		353.1,115.5 347,115.5 347,123.6 354.2,123.6 354.2,121.2 357.5,121.2 357.5,122.4 368.2,122.4 368.2,121.2 368.8,121.2 
		368.8,122.8 368.8,123.6 376.8,123.6 376.8,121.9 	"/>
	<polygon id="_x34_580515" class="st0" points="336.1,121.5 336.1,115.5 329.4,115.5 329.4,111.3 304.7,111.3 304.7,121.5 
		316,121.5 316,119.9 318.4,119.9 318.4,121.5 328.1,121.5 328.1,119.9 330.1,119.9 330.1,121.5 	"/>
	<polygon id="_x34_580516" class="st0" points="292.4,109.9 292.4,109.5 289.1,109.5 289.1,109.9 286.1,109.9 286.1,123.2 
		292.1,123.2 292.1,122 293.4,122 293.4,109.9 	"/>
	<polygon id="_x34_580517" class="st0" points="574.3,90.3 574.3,105.4 577.6,105.4 577.6,105.1 579.4,105.1 579.4,98.3 590.7,98.3 
		590.7,87.7 576.5,87.7 576.5,90.3 	"/>
	<polygon id="_x36_671511" class="st0" points="538.5,690.2 538.5,682.7 531.3,682.7 531.3,690.2 	"/>
	<polygon id="_x36_701850" class="st0" points="409.5,686.8 384.5,686.8 384.5,697.9 409.5,697.9 434.5,697.9 434.5,686.8 	"/>
	<polygon id="_x36_974411" class="st0" points="621.2,476.9 621.2,488.6 621.3,489.5 621.2,492.5 621.3,493 630.5,493 630.5,469.7 
		621.3,469.7 	"/>
	<polygon id="_x36_974412" class="st0" points="301,668.4 284.2,668.4 284.2,668.7 270.6,668.7 270.6,668.4 264.8,668.4 
		264.8,680.4 282.4,680.4 282.4,675.3 284.5,675.3 284.5,680.4 293.4,680.4 293.4,676.8 293.4,675.3 301,675.3 	"/>
	<polygon id="_x36_974413" class="st0" points="284.5,692.1 301,692.1 301,685.2 293.4,685.2 293.4,682.8 284.5,682.8 284.5,685.2 
		282.4,685.2 282.4,682.8 273,682.8 273,692.1 282.5,692.1 282.5,689.7 284.5,689.7 	"/>
	<polygon id="_x37_076075" class="st0" points="272.1,692.1 272.7,692.1 272.7,681.9 267.5,681.9 267.5,692.1 269.1,692.1 	"/>
	<polygon id="_x37_083101" class="st0" points="245.5,673.1 255,673.1 255,667.7 255.5,667.7 255.5,648.2 245.5,648.2 245.5,651.9 
		245.4,666.9 	"/>
	<polygon id="_x37_279905" class="st0" points="580.7,105.4 580.7,114 590.7,114 590.7,99.6 580.7,99.6 	"/>
	<polygon id="_x37_280380" class="st0" points="194.2,185.7 203.9,185.7 203.9,177.8 204.1,177.8 204.1,163.8 204.5,163.8 
		204.5,159.7 194.2,159.7 	"/>
	<polygon id="_x37_283023" class="st0" points="623.7,114.4 623.7,107 616.3,107 616.3,114.4 	"/>
	<polygon id="_x37_288093" class="st0" points="234.2,141.6 237.6,141.6 237.6,140.6 241.8,140.6 241.8,140.9 242.7,140.9 
		242.7,126 234.2,126 234.2,135.7 236.3,135.7 236.3,136.1 234.2,136.1 	"/>
	<polygon id="_x37_288103" class="st0" points="213.5,122.5 233.7,122.5 233.7,114.1 211.5,114.1 211.5,122.5 	"/>
	<polygon id="_x37_288162" class="st0" points="559,106.1 573,106.1 573.3,87.1 559,87.1 559,87.4 	"/>
	<polygon id="_x37_688092" class="st0" points="294,682.6 294,684.7 301,684.7 301,677 294,677 294,680.6 	"/>
	<polygon id="_x37_755626" class="st0" points="621.4,349 630.5,349 630.5,348 630.5,326.7 630.5,325.7 621.4,325.7 621.4,335.8 
		621.4,336.7 621.4,336.9 	"/>
	<polygon id="_x37_755630" class="st0" points="621.2,304.3 621.2,304.6 621.2,313 630.5,313 630.5,311.7 630.5,291 630.5,289.7 
		621.2,289.7 621.2,302.7 	"/>
	<polygon id="_x38_245467" class="st0" points="563.5,667.6 563.9,667.7 563.9,671.2 573.4,671.2 573.4,664.9 573.7,664.9 
		573.6,649.8 573.5,648.2 563.5,648.2 	"/>
	<polygon id="_x31_9357959" class="st0" points="260.8,667.6 260.8,667.9 263.8,667.9 263.8,667.6 320.4,668.5 320.2,692.2 
		307.3,692.2 307.2,668.5 301,668.4 301,692.9 272.1,692.9 272.1,692.7 269.1,692.7 269.1,692.9 255,692.9 255,673.1 245.5,673.1 
		245.5,692 245.4,698.6 245.5,701.2 409.5,701.2 409.5,697.9 384.5,697.9 384.5,686.8 409.5,686.8 409.5,648 407.4,648 407.4,648.3 
		374.8,648.3 374.8,648 371.4,648 371.4,648.2 338.8,648.2 338.8,648 335.4,648 335.4,648.2 302.8,648.2 302.8,648 299.4,648 
		299.4,648.2 266.8,648.2 266.8,648 263.4,648 263.4,648.2 255.5,648.2 255.5,667.6 	"/>
	<polygon id="_x31_9358792" class="st0" points="605.8,541.3 605.8,541.5 605.8,552.2 611.5,552.2 611.5,554.5 605.8,554.5 
		605.8,565.3 605.8,565.5 610.8,565.5 614.2,565.5 614.3,565.5 630.8,565.4 630.8,560 629.8,560 629.8,559.4 630.8,559.4 
		630.8,549.3 623.5,549.3 623.5,556.7 621.4,556.7 615.8,556.7 615.8,556.1 621.1,556.1 621.1,542 615.7,542 615.7,541.3 
		614.3,541.3 	"/>
	<polygon id="_x31_9358854" class="st0" points="605.8,529.3 605.8,529.5 610.8,529.5 611.8,529.5 614.2,529.5 621,529.4 621,518 
		619.5,518 619.5,517.4 621.3,517.4 623.5,517.4 623.5,521.4 630.8,521.4 630.8,505.3 615.3,505.3 612.8,505.3 612.8,510.7 
		605.8,510.7 605.8,516.2 611.5,516.2 611.5,518.5 605.8,518.5 	"/>
	<polygon id="_x31_9358871" class="st0" points="630.8,361.3 614.2,361.3 612.8,361.3 612.8,366.7 605.8,366.7 605.8,372.2 
		611.5,372.2 611.5,374.5 605.8,374.5 605.8,385.5 614.2,385.5 621.1,385.4 621.1,374 619.5,374 619.5,373.4 621.4,373.4 
		623.5,373.4 623.5,377.4 630.8,377.4 	"/>
	<polygon id="_x31_9358880" class="st0" points="614.2,277.5 614.2,277.4 630.8,277.4 630.8,261.4 630.2,261.4 623.5,261.3 
		623.5,268 621.4,268 615.8,268 615.8,267.4 621.1,267.4 621.1,253.3 614.2,253.3 610.6,253.3 609.7,253.3 605.8,253.3 605.8,264.2 
		611.5,264.2 611.5,266.5 605.8,266.5 605.8,277.5 609.7,277.5 610.9,277.5 	"/>
	<polygon id="_x31_9358883" class="st0" points="630.8,217.3 614.2,217.3 612.8,217.3 612.8,222.7 605.8,222.7 605.8,228.2 
		611.5,228.2 611.5,230.5 605.8,230.5 605.8,241.5 607.1,241.5 608.1,241.5 609.7,241.5 610.6,241.5 614.2,241.5 621.1,241.4 
		621.1,230 619.5,230 619.5,229.4 621.4,229.4 623.5,229.4 623.5,233.4 630.8,233.4 	"/>
	<polygon id="_x31_9359230" class="st0" points="631.2,313.7 631.2,314 621.2,314 620.9,314 614.2,314 614.2,313.4 603.4,313.4 
		602.9,313.5 600.6,313.5 600.6,317.1 600.6,321.6 610.4,321.6 610.8,325 610.9,325.3 614.2,325.3 614.2,324.7 621.1,324.7 
		631.5,324.7 631.5,326.7 631.5,347.7 631.5,350 621.1,350 619.2,350 615.5,350 614.2,350 614.2,349.4 610.4,349.4 610.4,353.1 
		600.6,353.1 600.6,357.4 600.6,366.5 612.8,366.7 612.8,361.3 630.8,361.3 630.8,377.4 621.1,377.5 621.1,385.4 605.8,385.5 
		605.8,397.3 621.1,397.3 621.1,405.3 630.8,405.3 630.8,421.4 600.6,421.5 600.6,427.8 600.6,429.6 600.6,433.3 610.4,433.3 
		614.2,433.3 614.2,432.7 620.9,432.7 621.1,432.7 631.5,432.7 631.5,457.7 662,457.7 662,313.7 	"/>
	<polygon id="_x31_9359233" class="st0" points="620.7,288.7 631.5,288.7 631.5,291 631.5,311.7 631.5,313.7 662,313.7 662,191.9 
		662.1,191.9 662.1,191.4 644.2,191.4 644.2,191.5 643.6,191.5 604.8,191.5 600.6,191.5 600.6,209.1 600.6,213.6 610.4,213.6 
		610.1,217.3 612.5,217.3 614.2,217.3 614.2,216.7 631.5,216.7 631.5,233.7 631.5,235 630.8,235 630.8,234 623.5,234 623.5,241.4 
		631.2,241.4 631.2,242 623.2,242 621.4,242 614.2,242 614.2,241.5 610.2,241.5 610.2,244.8 610.2,245.1 610.2,249.6 610.2,253.3 
		614.2,253.3 614.2,252.7 621.4,252.7 623.2,252.7 631.2,252.7 631.2,253.3 623.5,253.3 623.5,260.7 630.2,260.7 630.8,260.7 
		630.8,259.7 631.5,259.7 631.5,261 631.5,261.4 631.5,278 614.2,278 614.2,277.5 610.4,277.5 610.4,285.6 610.4,289.3 614.2,289.3 
		614.2,288.7 615.5,288.7 619.2,288.7 	"/>
	<polygon id="_x31_9359236" class="st0" points="621.6,458 621.1,458 614.2,458 614.2,457.4 610.4,457.4 610.4,457.9 610.4,461.1 
		610.4,465.6 610.4,469.3 614.2,469.3 614.2,468.7 620.6,468.7 631.5,468.7 631.5,494 620.6,494 614.2,494 614.2,493.4 610.4,493.4 
		610.4,494 610.3,497.1 610.2,501.6 610.4,501.6 610.4,505 614.2,505 614.2,504.7 615.3,504.7 631.5,504.7 631.5,521.7 631.5,523.1 
		630.8,523.1 630.8,522 623.5,522 623.5,529.4 631.2,529.4 631.2,530 623.2,530 621.3,530 614.2,530 614.2,529.5 611.3,529.5 
		611.3,533.1 611.3,537.6 611.3,541 614.2,541 614.2,540.7 614.3,540.7 616,540.7 621.4,540.7 623.2,540.7 631.2,540.7 631.2,541.3 
		623.5,541.3 623.5,548.7 630.8,548.7 630.8,547.7 631.5,547.7 631.5,549 631.5,559.7 631.5,566 614.3,566 614.2,566 614.2,565.5 
		610.8,565.5 610.8,565.8 610.2,565.8 610.4,569.1 600.6,569.1 600.6,573.6 600.6,589.7 609,589.7 617.7,589.7 630.8,589.7 
		630.8,590.4 631.5,590.4 640,590.4 649.5,590.4 650,590.4 662,590.4 662,576.1 662,457.7 631.2,457.7 631.2,458 	"/>
	<polygon id="_x31_9359487" class="st0" points="281.2,122.9 286.1,122.8 286.1,109.5 293.4,109.5 293.4,123.1 281.2,123.1 
		281.2,129.7 281.2,130.5 281.2,132.7 300.1,132.7 300.1,127.4 304.7,127.4 304.6,123.6 304.7,111.3 329.4,111.3 329.4,115.5 
		336.1,115.5 336.1,121.5 304.4,122 304.7,127.4 347,127.4 347,115.5 353.7,115.4 353.6,110.9 378.4,110.9 378.7,123.3 347,123.6 
		347,127.4 361.8,127.4 375.5,127.2 388.7,127.4 388.7,132.4 427.5,132.4 427.5,124.2 426.8,124.2 426.8,124.9 392.2,124.9 
		392.2,124.2 388.8,124.2 388.8,121.5 388.8,118.1 388.8,117.5 388.8,108.9 393.5,108.9 425.5,108.9 427.5,108.9 427.5,86.9 
		211.5,86.9 211.5,114.1 233.7,114.1 233.7,122.5 211.5,122.5 211.5,114.1 211.5,108.1 211.5,100.5 211.5,99.4 181.3,99.4 
		181.3,157.3 181.3,158.4 193,158.4 193.8,158.4 193.8,158.7 205.1,158.7 205.1,159.5 205.1,163.8 205.1,185.7 210.4,185.7 
		211.1,185.7 234.2,161.5 234.2,140.8 234.2,126 242.7,126 242.7,141.3 234.2,141.2 234.2,161.5 260.9,135.9 273.9,122.9 
		275.7,122.9 280.8,122.9 	"/>
</g>
</svg>
